<?xml version="1.0" encoding="utf-8"?>
<!-- Generator: Adobe Illustrator 16.0.0, SVG Export Plug-In . SVG Version: 6.00 Build 0)  -->
<!DOCTYPE svg PUBLIC "-//W3C//DTD SVG 1.1//EN" "http://www.w3.org/Graphics/SVG/1.1/DTD/svg11.dtd">
<svg version="1.1" id="Capa_1" xmlns="http://www.w3.org/2000/svg" xmlns:xlink="http://www.w3.org/1999/xlink" x="0px" y="0px"
	 width="16px" height="16px" viewBox="0 0 16 16" enable-background="new 0 0 16 16" xml:space="preserve">
<g>
	<path d="M14.7,6.988c-0.058-0.645-0.226-1.165-0.468-1.58C14.359,4.468,14.556,1.396,11.977,0c0.293,1.514-0.18,3.023-0.688,4.109
		C9.85,4.277,8.413,5.194,8,6.384c-0.413-1.19-1.849-2.107-3.288-2.274C4.205,3.023,3.731,1.515,4.024,0
		C1.446,1.396,1.642,4.466,1.768,5.408C1.526,5.822,1.358,6.343,1.3,6.988C0.791,12.67,8,16,8,16S15.209,12.67,14.7,6.988z"/>
</g>
</svg>
